<svg xmlns="http://www.w3.org/2000/svg" xmlns:xlink="http://www.w3.org/1999/xlink" width="500" zoomAndPan="magnify" viewBox="0 0 375 374.999991" height="500" preserveAspectRatio="xMidYMid meet" version="1.0"><defs><g/></defs><rect x="-37.5" width="450" fill="#ffffff" y="-37.499999" height="449.999989" fill-opacity="1"/><rect x="-37.5" width="450" fill="#000000" y="-37.499999" height="449.999989" fill-opacity="1"/><g fill="#fffaf3" fill-opacity="1"><g transform="translate(70.429067, 174.549359)"><g><path d="M 31.671875 -59.875 C 35.921875 -59.875 39.90625 -59.070312 43.625 -57.46875 C 47.34375 -55.875 50.625 -53.65625 53.46875 -50.8125 C 56.3125 -47.976562 58.53125 -44.695312 60.125 -40.96875 C 61.726562 -37.25 62.53125 -33.269531 62.53125 -29.03125 C 62.53125 -24.78125 61.726562 -20.796875 60.125 -17.078125 C 58.53125 -13.359375 56.3125 -10.078125 53.46875 -7.234375 C 50.625 -4.398438 47.34375 -2.179688 43.625 -0.578125 C 39.90625 1.015625 35.921875 1.8125 31.671875 1.8125 C 27.429688 1.8125 23.445312 1.015625 19.71875 -0.578125 C 16 -2.179688 12.71875 -4.398438 9.875 -7.234375 C 7.039062 -10.078125 4.820312 -13.359375 3.21875 -17.078125 C 1.625 -20.796875 0.828125 -24.78125 0.828125 -29.03125 C 0.828125 -33.269531 1.625 -37.25 3.21875 -40.96875 C 4.820312 -44.695312 7.039062 -47.976562 9.875 -50.8125 C 12.71875 -53.65625 16 -55.875 19.71875 -57.46875 C 23.445312 -59.070312 27.429688 -59.875 31.671875 -59.875 Z M 31.671875 -59.875 "/></g></g></g><g fill="#fffaf3" fill-opacity="1"><g transform="translate(134.189744, 174.549359)"><g><path d="M 30.1875 -57.890625 C 33.4375 -57.890625 36.476562 -57.28125 39.3125 -56.0625 C 42.15625 -54.851562 44.664062 -53.171875 46.84375 -51.015625 C 49.03125 -48.867188 50.742188 -46.375 51.984375 -43.53125 C 53.222656 -40.695312 53.84375 -37.65625 53.84375 -34.40625 C 53.84375 -31.207031 53.234375 -28.1875 52.015625 -25.34375 C 50.804688 -22.507812 49.125 -20.015625 46.96875 -17.859375 C 44.820312 -15.710938 42.34375 -14.03125 39.53125 -12.8125 C 36.71875 -11.601562 33.6875 -11 30.4375 -11 L 30.4375 0 L 2.484375 0 L 2.484375 -57.890625 Z M 30.1875 -57.890625 "/></g></g></g><g fill="#fffaf3" fill-opacity="1"><g transform="translate(189.101667, 174.549359)"><g><path d="M 2.390625 -57.96875 L 50.359375 -57.96875 L 50.359375 -38.453125 L 38.375 -38.453125 L 38.375 -35.96875 L 50.359375 -35.96875 L 50.359375 -22.078125 L 38.375 -22.078125 L 38.375 -19.59375 L 50.359375 -19.59375 L 50.359375 -0.078125 L 2.390625 -0.078125 Z M 2.390625 -57.96875 "/></g></g></g><g fill="#fffaf3" fill-opacity="1"><g transform="translate(241.863417, 174.549359)"><g><path d="M 2.484375 -59.296875 L 31.59375 -36.5625 L 31.59375 -57.890625 L 60.375 -57.890625 L 60.375 0 L 2.484375 0 Z M 2.484375 -59.296875 "/></g></g></g><g fill="#fffaf3" fill-opacity="1"><g transform="translate(43.260447, 240.665703)"><g><path d="M 14.796875 -57.890625 L 58.21875 -57.890625 L 58.21875 -28.78125 L 48.140625 -28.78125 L 48.140625 -28.203125 C 50.890625 -27.597656 53.117188 -26.476562 54.828125 -24.84375 C 56.535156 -23.21875 57.734375 -21.34375 58.421875 -19.21875 C 59.117188 -17.101562 59.328125 -14.914062 59.046875 -12.65625 C 58.773438 -10.394531 58.054688 -8.296875 56.890625 -6.359375 C 55.734375 -4.429688 54.160156 -2.875 52.171875 -1.6875 C 50.191406 -0.507812 47.796875 0.078125 44.984375 0.078125 L 1.90625 0.078125 L 1.90625 -28.78125 L 13.5625 -28.78125 L 13.5625 -29.359375 C 9.539062 -30.128906 6.34375 -31.738281 3.96875 -34.1875 C 1.59375 -36.644531 0.40625 -39.75 0.40625 -43.5 C 0.40625 -45.976562 1.050781 -48.320312 2.34375 -50.53125 C 3.644531 -52.738281 5.382812 -54.515625 7.5625 -55.859375 C 9.738281 -57.210938 12.148438 -57.890625 14.796875 -57.890625 Z M 14.796875 -57.890625 "/></g></g></g><g fill="#fffaf3" fill-opacity="1"><g transform="translate(102.88619, 240.665703)"><g><path d="M 30.1875 -57.890625 C 33.4375 -57.890625 36.476562 -57.28125 39.3125 -56.0625 C 42.15625 -54.851562 44.664062 -53.171875 46.84375 -51.015625 C 49.03125 -48.867188 50.742188 -46.375 51.984375 -43.53125 C 53.222656 -40.695312 53.84375 -37.65625 53.84375 -34.40625 C 53.84375 -31.207031 53.234375 -28.1875 52.015625 -25.34375 C 50.804688 -22.507812 49.125 -20.015625 46.96875 -17.859375 C 44.820312 -15.710938 42.34375 -14.03125 39.53125 -12.8125 C 36.71875 -11.601562 33.6875 -11 30.4375 -11 L 30.4375 0 L 2.484375 0 L 2.484375 -57.890625 Z M 30.1875 -57.890625 "/></g></g></g><g fill="#fffaf3" fill-opacity="1"><g transform="translate(157.798113, 240.665703)"><g><path d="M -2.3125 0 L 34.234375 -61.9375 L 70.796875 0 Z M -2.3125 0 "/></g></g></g><g fill="#fffaf3" fill-opacity="1"><g transform="translate(226.024514, 240.665703)"><g><path d="M 9.84375 -50.53125 C 12.820312 -53.507812 16.171875 -55.742188 19.890625 -57.234375 C 23.609375 -58.722656 27.4375 -59.46875 31.375 -59.46875 C 35.320312 -59.46875 39.15625 -58.722656 42.875 -57.234375 C 46.601562 -55.742188 49.957031 -53.507812 52.9375 -50.53125 L 31.34375 -29.03125 L 52.9375 -7.4375 C 49.957031 -4.46875 46.601562 -2.238281 42.875 -0.75 C 39.15625 0.738281 35.320312 1.484375 31.375 1.484375 C 27.4375 1.484375 23.609375 0.738281 19.890625 -0.75 C 16.171875 -2.238281 12.820312 -4.46875 9.84375 -7.4375 C 6.863281 -10.414062 4.628906 -13.765625 3.140625 -17.484375 C 1.648438 -21.210938 0.90625 -25.046875 0.90625 -28.984375 C 0.90625 -32.929688 1.648438 -36.765625 3.140625 -40.484375 C 4.628906 -44.203125 6.863281 -47.550781 9.84375 -50.53125 Z M 9.84375 -50.53125 "/></g></g></g><g fill="#fffaf3" fill-opacity="1"><g transform="translate(278.951665, 240.665703)"><g><path d="M 2.390625 -57.96875 L 50.359375 -57.96875 L 50.359375 -38.453125 L 38.375 -38.453125 L 38.375 -35.96875 L 50.359375 -35.96875 L 50.359375 -22.078125 L 38.375 -22.078125 L 38.375 -19.59375 L 50.359375 -19.59375 L 50.359375 -0.078125 L 2.390625 -0.078125 Z M 2.390625 -57.96875 "/></g></g></g></svg>